<?xml version="1.0" encoding="utf-8"?>
<!-- Generator: Adobe Illustrator 17.0.2, SVG Export Plug-In . SVG Version: 6.00 Build 0)  -->
<!DOCTYPE svg PUBLIC "-//W3C//DTD SVG 1.1//EN" "http://www.w3.org/Graphics/SVG/1.1/DTD/svg11.dtd">
<svg version="1.1" id="Layer_1" xmlns="http://www.w3.org/2000/svg" xmlns:xlink="http://www.w3.org/1999/xlink" x="0px" y="0px"
	 width="512px" height="512px" viewBox="0 0 512 512" enable-background="new 0 0 512 512" xml:space="preserve">
<g>
	<g>
		<path fill="#333333" d="M130.116,139.168l-4.068-18.089h-22.296l-4.068,18.089H77.249l24.119-99.282h28.186l23.98,99.282H130.116z
			 M115.251,61.48h-0.561l-8.413,42.21h16.968L115.251,61.48z"/>
		<path fill="#333333" d="M230.66,139.168l0.84-68.151h-0.561l-16.687,68.151h-15.846L182.28,71.016h-0.42l0.7,68.151h-20.332
			V39.886h28.327l15.985,63.943h0.561l15.565-63.943h30.009v99.282H230.66z"/>
		<path fill="#333333" d="M270.346,139.168V39.886h22.577v99.282H270.346z"/>
		<path fill="#333333" d="M341.859,58.956v80.211h-22.014V58.956h-18.232v-19.07h58.478v19.07H341.859z"/>
		<path fill="#333333" d="M409.385,103.409v35.759h-22.014v-35.759L362.27,39.886h24.261l11.918,41.087h0.281l12.058-41.087h23.839
			L409.385,103.409z"/>
	</g>
	<rect x="77.25" y="19.416" fill="none" width="353.376" height="154.811"/>
	<g>
		<path fill="#333333" d="M108.176,445.162c0,2.535-0.387,4.726-1.16,6.573c-0.772,1.847-1.804,3.372-3.092,4.575
			s-2.75,2.095-4.38,2.672c-1.634,0.581-3.287,0.87-4.961,0.87h-4.445v16.626H80.019v-45.617h14.175
			c1.632,0,3.276,0.237,4.928,0.707c1.654,0.474,3.157,1.258,4.51,2.354c1.355,1.096,2.448,2.565,3.287,4.412
			C107.758,440.181,108.176,442.457,108.176,445.162z M98.512,445.358c0-2.062-0.496-3.546-1.482-4.445
			c-0.988-0.903-2.191-1.355-3.609-1.355h-3.285v11.918h3.285c1.418,0,2.62-0.526,3.609-1.577
			C98.016,448.849,98.512,447.335,98.512,445.358z"/>
		<path fill="#333333" d="M146.834,453.542c0,3.605-0.409,6.903-1.225,9.889c-0.816,2.983-1.976,5.53-3.479,7.632
			c-1.505,2.106-3.34,3.738-5.509,4.897c-2.169,1.162-4.606,1.743-7.312,1.743c-2.707,0-5.145-0.581-7.313-1.743
			c-2.169-1.158-4.005-2.791-5.509-4.897c-1.503-2.102-2.663-4.649-3.479-7.632c-0.816-2.987-1.223-6.285-1.223-9.889
			c0-3.609,0.396-6.884,1.192-9.827c0.794-2.942,1.943-5.456,3.446-7.539c1.505-2.084,3.34-3.694,5.509-4.834
			c2.169-1.136,4.628-1.706,7.378-1.706c2.706,0,5.143,0.57,7.312,1.706c2.169,1.14,4.005,2.75,5.509,4.834
			c1.503,2.084,2.663,4.597,3.479,7.539C146.425,446.658,146.834,449.933,146.834,453.542z M136.268,453.542
			c0-1.976-0.152-3.812-0.452-5.511c-0.302-1.695-0.74-3.168-1.321-4.412c-0.579-1.247-1.299-2.224-2.158-2.931
			c-0.861-0.711-1.869-1.066-3.028-1.066c-1.16,0-2.182,0.355-3.061,1.066c-0.881,0.707-1.61,1.684-2.191,2.931
			c-0.579,1.244-1.009,2.717-1.288,4.412c-0.279,1.699-0.418,3.535-0.418,5.511c0,1.973,0.139,3.823,0.418,5.541
			c0.279,1.717,0.709,3.198,1.288,4.445c0.581,1.244,1.31,2.232,2.191,2.965c0.879,0.729,1.901,1.092,3.061,1.092
			c1.158,0,2.167-0.363,3.028-1.092c0.859-0.733,1.579-1.721,2.158-2.965c0.581-1.247,1.02-2.728,1.321-4.445
			C136.116,457.365,136.268,455.514,136.268,453.542z"/>
		<path fill="#333333" d="M171.96,441.75c-0.772-0.903-1.675-1.599-2.706-2.095c-1.031-0.492-2.104-0.74-3.222-0.74
			c-1.158,0-2.2,0.366-3.124,1.096c-0.925,0.733-1.386,1.939-1.386,3.616c0,1.418,0.472,2.528,1.418,3.324
			c0.946,0.796,2.341,1.666,4.188,2.613c1.038,0.518,2.13,1.129,3.276,1.839c1.146,0.711,2.195,1.58,3.146,2.613
			s1.741,2.269,2.367,3.712c0.627,1.44,0.942,3.15,0.942,5.13c0,2.454-0.39,4.615-1.17,6.488c-0.777,1.869-1.825,3.42-3.144,4.645
			c-1.319,1.225-2.841,2.15-4.567,2.776c-1.727,0.622-3.512,0.936-5.359,0.936c-2.748,0-5.25-0.518-7.506-1.547
			c-2.254-1.033-4.069-2.235-5.444-3.609l5.283-7.732c0.988,1.029,2.126,1.858,3.414,2.48c1.29,0.622,2.598,0.936,3.931,0.936
			c1.245,0,2.298-0.411,3.157-1.225c0.859-0.818,1.288-1.954,1.288-3.416c0-1.503-0.514-2.694-1.545-3.575
			c-1.031-0.881-2.535-1.814-4.51-2.802c-1.247-0.603-2.417-1.266-3.512-1.999c-1.096-0.729-2.062-1.61-2.898-2.643
			c-0.838-1.029-1.493-2.232-1.965-3.605c-0.474-1.377-0.709-3.009-0.709-4.897c0-2.535,0.418-4.715,1.257-6.54
			c0.836-1.828,1.932-3.32,3.285-4.478c1.353-1.162,2.855-2.021,4.51-2.58c1.654-0.555,3.318-0.836,4.995-0.836
			c2.489,0,4.725,0.407,6.699,1.218c1.976,0.811,3.631,1.917,4.961,3.327L171.96,441.75z"/>
		<path fill="#333333" d="M196.83,439.622v36.856h-10.115v-36.856h-8.376v-8.761h26.867v8.761H196.83z"/>
		<path fill="#333333" d="M239.482,441.75c-0.772-0.903-1.675-1.599-2.706-2.095c-1.031-0.492-2.104-0.74-3.222-0.74
			c-1.158,0-2.2,0.366-3.124,1.096c-0.925,0.733-1.386,1.939-1.386,3.616c0,1.418,0.472,2.528,1.418,3.324
			c0.946,0.796,2.341,1.666,4.188,2.613c1.038,0.518,2.13,1.129,3.276,1.839c1.146,0.711,2.195,1.58,3.146,2.613
			s1.741,2.269,2.367,3.712c0.627,1.44,0.942,3.15,0.942,5.13c0,2.454-0.39,4.615-1.17,6.488c-0.777,1.869-1.825,3.42-3.144,4.645
			c-1.319,1.225-2.841,2.15-4.567,2.776c-1.727,0.622-3.512,0.936-5.359,0.936c-2.748,0-5.25-0.518-7.506-1.547
			c-2.254-1.033-4.069-2.235-5.444-3.609l5.283-7.732c0.988,1.029,2.126,1.858,3.414,2.48c1.29,0.622,2.598,0.936,3.931,0.936
			c1.245,0,2.298-0.411,3.157-1.225c0.859-0.818,1.288-1.954,1.288-3.416c0-1.503-0.514-2.694-1.545-3.575
			c-1.031-0.881-2.535-1.814-4.51-2.802c-1.247-0.603-2.417-1.266-3.512-1.999c-1.096-0.729-2.062-1.61-2.898-2.643
			c-0.838-1.029-1.493-2.232-1.965-3.605c-0.474-1.377-0.709-3.009-0.709-4.897c0-2.535,0.418-4.715,1.257-6.54
			c0.836-1.828,1.932-3.32,3.285-4.478c1.353-1.162,2.855-2.021,4.51-2.58c1.654-0.555,3.318-0.836,4.995-0.836
			c2.489,0,4.725,0.407,6.699,1.218c1.976,0.811,3.631,1.917,4.961,3.327L239.482,441.75z"/>
		<path fill="#333333" d="M283.488,453.542c0,3.605-0.411,6.903-1.225,9.889c-0.814,2.983-1.976,5.53-3.479,7.632
			c-1.503,2.106-3.338,3.738-5.507,4.897c-2.169,1.162-4.608,1.743-7.313,1.743c-2.707,0-5.145-0.581-7.313-1.743
			c-2.169-1.158-4.005-2.791-5.509-4.897c-1.503-2.102-2.663-4.649-3.479-7.632c-0.816-2.987-1.223-6.285-1.223-9.889
			c0-3.609,0.396-6.884,1.192-9.827c0.794-2.942,1.943-5.456,3.446-7.539c1.505-2.084,3.34-3.694,5.509-4.834
			c2.169-1.136,4.628-1.706,7.378-1.706c2.706,0,5.145,0.57,7.313,1.706c2.169,1.14,4.005,2.75,5.507,4.834
			c1.503,2.084,2.665,4.597,3.479,7.539C283.078,446.658,283.488,449.933,283.488,453.542z M272.922,453.542
			c0-1.976-0.152-3.812-0.452-5.511c-0.303-1.695-0.74-3.168-1.321-4.412c-0.581-1.247-1.299-2.224-2.158-2.931
			c-0.859-0.711-1.869-1.066-3.028-1.066c-1.162,0-2.184,0.355-3.061,1.066c-0.881,0.707-1.61,1.684-2.191,2.931
			c-0.579,1.244-1.009,2.717-1.288,4.412c-0.279,1.699-0.418,3.535-0.418,5.511c0,1.973,0.139,3.823,0.418,5.541
			c0.279,1.717,0.709,3.198,1.288,4.445c0.581,1.244,1.31,2.232,2.191,2.965c0.877,0.729,1.899,1.092,3.061,1.092
			c1.158,0,2.169-0.363,3.028-1.092c0.859-0.733,1.577-1.721,2.158-2.965c0.581-1.247,1.018-2.728,1.321-4.445
			C272.77,457.365,272.922,455.514,272.922,453.542z"/>
		<path fill="#333333" d="M313.316,475.93c-2.017,1.181-4.597,1.773-7.728,1.773c-2.665,0-5.082-0.592-7.251-1.773
			s-4.027-2.835-5.57-4.963c-1.547-2.124-2.754-4.66-3.612-7.602s-1.288-6.174-1.288-9.697c0-3.564,0.429-6.829,1.288-9.793
			c0.859-2.961,2.065-5.496,3.612-7.602c1.543-2.102,3.401-3.738,5.57-4.897c2.169-1.158,4.586-1.74,7.251-1.74
			c3.05,0,5.592,0.548,7.632,1.643c2.043,1.096,3.686,2.461,4.93,4.09l-5.541,7.476c-0.774-1.033-1.643-1.847-2.609-2.45
			c-0.966-0.6-2.18-0.899-3.642-0.899c-1.373,0-2.565,0.363-3.575,1.092c-1.007,0.733-1.865,1.732-2.576,2.998
			c-0.711,1.266-1.236,2.772-1.577,4.512c-0.348,1.74-0.518,3.598-0.518,5.57c0,1.976,0.17,3.823,0.518,5.541
			c0.341,1.721,0.866,3.224,1.577,4.512c0.711,1.288,1.577,2.298,2.609,3.028c1.033,0.733,2.232,1.096,3.609,1.096
			c1.373,0,2.576-0.344,3.605-1.029c1.036-0.688,1.851-1.506,2.45-2.45l5.737,7.151C316.969,473.276,315.337,474.749,313.316,475.93
			z"/>
		<path fill="#333333" d="M322.724,476.478v-45.617h10.374v45.617H322.724z"/>
		<path fill="#333333" d="M341.215,476.478v-45.617h22.037v9.083h-12.177v8.957h11.207v8.505h-11.207v9.793h12.947v9.279H341.215z"
			/>
		<path fill="#333333" d="M384.445,439.622v36.856h-10.112v-36.856h-8.379v-8.761h26.87v8.761H384.445z"/>
		<path fill="#333333" d="M413.632,460.048v16.429h-10.115v-16.429l-11.533-29.187h11.144l5.478,18.876h0.13l5.541-18.876h10.955
			L413.632,460.048z"/>
	</g>
	<rect x="75.961" y="421.459" fill="none" width="349.142" height="71.129"/>
	<rect x="28.603" fill="none" width="454.794" height="512"/>
	<g>
		
			<rect x="68.75" y="162.298" fill="none" stroke="#333333" stroke-width="17.991" stroke-linecap="round" stroke-linejoin="bevel" stroke-miterlimit="10" width="374.499" height="246.773"/>
		
			<rect x="313.197" y="200.198" fill="none" stroke="#333333" stroke-width="17.9342" stroke-linecap="round" stroke-linejoin="bevel" stroke-miterlimit="10" width="90.96" height="111.679"/>
		
			<line fill="none" stroke="#333333" stroke-width="18.9499" stroke-linecap="square" stroke-linejoin="round" stroke-miterlimit="10" x1="107.849" y1="280.472" x2="176.069" y2="280.472"/>
		
			<line fill="none" stroke="#333333" stroke-width="18.9499" stroke-linecap="square" stroke-linejoin="round" stroke-miterlimit="10" x1="107.849" y1="323.453" x2="222.238" y2="323.453"/>
		
			<line fill="none" stroke="#333333" stroke-width="18.9499" stroke-linecap="square" stroke-linejoin="round" stroke-miterlimit="10" x1="107.849" y1="366.436" x2="222.238" y2="366.436"/>
	</g>
	<rect x="28.603" fill="none" width="454.794" height="512"/>
</g>
</svg>
